PathFileType  4	(X/Y/Z) C:\Users\antoi\Documents\MyRepositories\mobilecap\ResultsAnalysis
DataRate	CameraRate	NumFrames	NumMarkers	Units	OrigDataRate	OrigDataStartFrame	OrigNumFrames
100.0	100.0	4	51	mm	100.0	91	144
Frame#	Time	r_knee			r_shank_antsup			r_ankle			r_calc			r_5meta			r_toe			L_knee			L_shank_antsup			L_ankle			L_calc			L_5meta			L_toe			r_sh2			r_sh3			r_sh4			L_sh2			L_sh3			r_thigh1			r_thigh2			r_thigh3			r_thigh4			r_thigh5			L_thigh1			L_thigh2			L_thigh3			L_thigh4			r.ASIS			r.PSIS			L.ASIS			L.PSIS			C7			R_Shoulder			L_Shoulder			R_Sternum			L_Sternum			R_humerus			R_elbow_med			R_elbow_lat			R_forearm			R_wrist_radius			R_wrist_ulna			L_humerus			L_elbow_med			L_elbow_lat			L_forearm			L_wrist_radius			L_wrist_ulna			R_HJC			L_HJC			R_HJC_reg			L_HJC_reg			
		X1	Y1	Z1	X2	Y2	Z2	X3	Y3	Z3	X4	Y4	Z4	X5	Y5	Z5	X6	Y6	Z6	X7	Y7	Z7	X8	Y8	Z8	X9	Y9	Z9	X10	Y10	Z10	X11	Y11	Z11	X12	Y12	Z12	X13	Y13	Z13	X14	Y14	Z14	X15	Y15	Z15	X16	Y16	Z16	X17	Y17	Z17	X18	Y18	Z18	X19	Y19	Z19	X20	Y20	Z20	X21	Y21	Z21	X22	Y22	Z22	X23	Y23	Z23	X24	Y24	Z24	X25	Y25	Z25	X26	Y26	Z26	X27	Y27	Z27	X28	Y28	Z28	X29	Y29	Z29	X30	Y30	Z30	X31	Y31	Z31	X32	Y32	Z32	X33	Y33	Z33	X34	Y34	Z34	X35	Y35	Z35	X36	Y36	Z36	X37	Y37	Z37	X38	Y38	Z38	X39	Y39	Z39	X40	Y40	Z40	X41	Y41	Z41	X42	Y42	Z42	X43	Y43	Z43	X44	Y44	Z44	X45	Y45	Z45	X46	Y46	Z46	X47	Y47	Z47	X48	Y48	Z48	X49	Y49	Z49	X50	Y50	Z50	X51	Y51	Z51	

91	0.90000000	1070.32231	596.20947	-70.75735	1071.31709	490.11464	-85.81861	840.22303	243.11415	-131.30849	751.61409	243.53308	-190.59675	888.57175	111.88398	-88.35527	961.59589	108.74320	-142.30304	908.88182	548.50665	-416.19492	902.60313	456.97095	-434.19154	879.80412	124.50589	-360.42753	811.78387	77.09606	-291.35372	984.18140	48.43603	-410.27820	1054.62839	74.29845	-359.56879	1001.47402	402.91149	-69.11739	1024.76646	533.89182	-45.13774	939.07803	454.94167	-47.20906	817.87346	465.33370	-403.68480	824.81679	344.53348	-394.77895	1015.47267	918.72554	-77.65619	1064.86621	820.52407	-70.92348	1021.47389	777.42337	-39.77919	916.77808	871.87375	-58.80162	970.23172	768.08933	-57.54076	973.42846	849.87771	-439.84488	991.01028	710.53174	-427.50873	865.79140	833.33207	-448.78270	878.10931	697.70821	-441.71898	972.57164	1104.37372	-132.44941	795.52973	1106.95402	-200.15245	983.37588	1077.16887	-383.56989	795.83065	1102.74409	-310.60051	948.99780	1606.67320	-436.91702	1034.75400	1588.64105	-261.61659	947.88414	1466.95960	-569.16942	1048.98838	1501.67832	-387.28838	1034.73557	1479.21558	-437.28579	1006.57060	1462.82339	-143.82685	858.88808	1300.97917	-110.57923	895.13548	1334.71736	-39.11481	942.50223	1172.82226	15.38062	973.17482	1078.72998	19.24876	943.02026	1095.83238	51.28490	902.80109	1328.22200	-603.07404	863.53465	1120.04456	-467.44520	850.61248	1112.07319	-549.47749	893.53458	1051.65654	-573.73901	982.02506	895.73529	-570.67117	944.90220	879.81251	-565.68661	897.61579	985.07190	-141.14481	895.31632	971.77665	-347.66528	921.44142	1009.13808	-164.25475	921.89567	1002.78241	-330.99478	
92	0.91000000	1085.69556	599.75403	-74.40992	1090.91223	493.44951	-89.17480	871.51128	235.64591	-132.58553	782.92487	230.67912	-191.71232	926.91925	107.97340	-88.20323	1000.07800	108.27035	-142.07837	910.75208	549.18102	-416.87624	903.78803	457.55097	-434.87316	879.94566	124.94773	-360.74868	811.90952	77.63439	-291.35701	984.15674	48.37723	-410.37750	1054.74917	74.21578	-359.83118	1025.71106	403.46441	-71.75368	1042.93240	535.29480	-48.25289	961.00354	452.42454	-49.36857	819.24445	466.46727	-404.08628	825.71362	345.47272	-395.00694	1027.19969	921.57827	-80.61992	1077.88539	824.05748	-74.44143	1035.08427	780.38202	-43.23055	929.44375	873.89510	-61.63249	983.97629	770.53619	-60.93264	980.98313	849.47624	-442.01226	996.09471	709.94861	-429.19694	872.89423	834.98047	-450.28166	882.99988	699.24365	-442.95979	982.90816	1105.95830	-135.11488	805.93990	1108.18913	-202.69350	993.71138	1078.26558	-386.14272	806.40771	1103.92826	-313.07802	959.70367	1609.97167	-434.62383	1042.69177	1590.69175	-258.11526	961.19283	1472.21999	-568.49988	1059.61620	1505.30622	-384.56236	1045.71491	1483.20442	-434.99541	1012.99458	1463.46762	-142.19997	865.46753	1300.58501	-113.71595	899.96308	1333.61293	-41.25627	945.38975	1171.32131	13.48517	975.48294	1077.07522	17.67266	944.60217	1094.18125	49.00576	918.25291	1333.42519	-604.87215	880.50850	1122.68518	-472.37371	868.98283	1115.73812	-554.88390	914.09766	1057.17170	-579.55456	1007.84731	904.30565	-578.42377	971.32706	887.13145	-574.05728	908.14117	986.55433	-143.51720	905.79966	972.90075	-350.01405	931.83512	1010.42918	-166.92878	932.54184	1003.99408	-333.63934	
93	0.92000000	1100.23744	602.66218	-77.97235	1109.79733	496.49039	-92.22799	903.21829	228.01974	-134.02118	815.02021	217.52573	-192.99755	965.56519	104.39214	-88.18867	1038.67652	108.15450	-141.99888	912.73555	549.84120	-417.62547	905.08131	458.13562	-435.60712	880.08925	125.36636	-361.12527	812.03752	78.19225	-291.41879	984.12365	48.30531	-410.50630	1054.87206	74.14402	-360.11127	1049.28952	403.84446	-74.25064	1060.05612	536.31192	-51.52396	982.25000	449.62792	-51.90993	820.69896	467.57508	-404.59210	826.67338	346.42003	-395.35779	1038.89212	923.88720	-83.49719	1090.51360	826.88702	-77.86047	1048.23518	782.70335	-46.60010	941.86280	875.59890	-64.42807	997.16171	772.53794	-64.30667	988.52781	849.00052	-444.23450	1001.17928	709.30981	-430.99006	880.00815	836.51629	-451.82072	888.08606	700.76776	-444.28001	993.35011	1107.23338	-137.72061	816.40326	1109.14022	-205.13330	1004.06497	1079.18040	-388.71432	816.99706	1104.88805	-315.43622	970.30734	1612.94965	-432.26185	1050.55592	1592.34951	-254.61835	974.45938	1477.17806	-567.68662	1070.10611	1508.57060	-381.77891	1056.54297	1486.84457	-432.61244	1019.39408	1463.79485	-140.55450	872.19914	1299.88618	-116.80035	904.87312	1332.26380	-43.37591	948.44863	1169.62064	11.60982	978.01174	1075.24173	16.10858	946.35077	1092.30881	46.69619	933.65653	1338.42077	-606.51075	897.61890	1125.12060	-477.33629	887.50976	1119.25424	-560.30458	934.67526	1062.56878	-585.28817	1033.42549	912.85393	-585.91056	997.50045	894.50050	-582.18093	918.76355	987.72755	-145.88223	916.30277	973.82296	-352.36116	942.32279	1011.40995	-169.58081	943.22061	1004.98349	-336.29219	
94	0.93000000	1114.00378	604.87267	-81.42161	1128.02797	499.23839	-94.98012	935.30520	220.33883	-135.52400	847.79247	204.27459	-194.27421	1004.47295	101.16210	-88.40690	1077.26096	108.42530	-142.25842	914.87184	550.46239	-418.41609	906.49705	458.70580	-436.36337	880.23433	125.75397	-361.52647	812.17342	78.74942	-291.53355	984.09018	48.22345	-410.65467	1054.99748	74.08376	-360.39697	1072.17507	404.01939	-76.56922	1076.15819	536.87840	-54.92668	1002.83398	446.53315	-54.78355	822.25358	468.62626	-405.16650	827.68766	347.36926	-395.81222	1050.57997	925.62997	-86.27672	1102.74058	828.96008	-81.18459	1060.88081	784.37097	-49.87702	953.98960	876.90257	-67.17871	1009.79994	774.03217	-67.62653	996.11993	848.42968	-446.48049	1006.31795	708.59436	-432.83283	887.20319	837.91650	-453.40020	893.37394	702.21319	-445.65616	1003.88297	1108.16860	-140.27292	826.93853	1109.79780	-207.49391	1014.46633	1079.91362	-391.28901	827.62512	1105.61225	-317.70624	980.79480	1615.60572	-429.82795	1058.35701	1593.59564	-251.13717	987.68531	1481.81520	-566.73139	1080.41120	1511.43707	-378.95238	1067.30919	1490.13548	-430.16309	1025.79313	1463.78274	-138.90410	879.10332	1298.88480	-119.81001	909.92393	1330.64946	-45.46037	951.70067	1167.68282	9.75484	980.76215	1073.17860	14.55791	948.28755	1090.17435	44.35117	949.01665	1343.20431	-607.99321	914.86527	1127.35533	-482.33622	906.16904	1122.61916	-565.72891	955.23952	1067.82077	-590.92510	1058.74178	921.31852	-593.07297	1023.40402	901.84848	-590.03286	929.47774	988.56640	-148.26585	926.84985	974.53957	-354.73452	952.89812	1012.07475	-172.22086	953.93724	1005.74304	-338.96078	
